# xmcd
#
# Track frame offsets:
#	150
#	10644
#	22196
#	34476
#	45072
#	57025
#	68912
#	79291
#	88389
#	100048
#	109106
#	120495
#	132700
#	143880
#	156318
#	167316
#	179098
#	187665
#	199755
#	210955
#	220167
#	230847
#
# Disc length: 3217 seconds
#
# Revision: 1
# Processed by: cddbd v1.5.2PL0 Copyright (c) Steve Scherf et al.
# Submitted via: audiograbber 1.83.01
#
DISCID=310c8f16
DTITLE=Various Artist - Stompin' 26: Rockin' Blues Classics
DYEAR=1900
DGENRE=Blues
TTITLE0=Walter Price - Six Weeks Of Misery
TTITLE1=Clear Waters (Eddy Harrington) - Hillbilly Blues
TTITLE2=Allen Bunn - Too Much Competition
TTITLE3=Eddie Hope - A Fool No More
TTITLE4=Big Joe Williams - Goin' Back
TTITLE5=Junior Wells - Lawdy! Lawdy!
TTITLE6=Elmon Mickle - Short And Fat
TTITLE7=Elmon Mickle - Independent Walk
TTITLE8=Mojo Watson - I'm The Only One
TTITLE9=Square Walton - Bad Hangover
TTITLE10=Kasandrea - My Conscience Is Bothering Me
TTITLE11=James Williamson - The Woman I Love
TTITLE12=Papa Lightfoot - P. L. Blues
TTITLE13=Blue Charlie - I'm Going To Kill That Hen
TTITLE14=Morris Pejoe - Tired Of Cryin' Over You
TTITLE15=Little Milton - Boogie Woogie Woogie Baby
TTITLE16=Little Sonny - Love Shock
TTITLE17=Robert Gill - I Only Had A Little
TTITLE18=The Binghampton Blues Boys - Cross Cut Saw
TTITLE19=The Binghampton Blues Boys - Slim's Twist
TTITLE20=Bobo Jenkins - You Will Never Understand
TTITLE21=Bobo Jenkins - Tell Me Where You Stayed Last Night
EXTD=
EXTT0=
EXTT1=
EXTT2=
EXTT3=
EXTT4=
EXTT5=
EXTT6=
EXTT7=
EXTT8=
EXTT9=
EXTT10=
EXTT11=
EXTT12=
EXTT13=
EXTT14=
EXTT15=
EXTT16=
EXTT17=
EXTT18=
EXTT19=
EXTT20=
EXTT21=
PLAYORDER=
